<svg version="1.1" id="Layer_1" xmlns="http://www.w3.org/2000/svg" xmlns:xlink="http://www.w3.org/1999/xlink" x="0px" y="0px"
	 width="144px" height="144px" viewBox="0 0 144 144" enable-background="new 0 0 144 144" xml:space="preserve">
<g>
	<path d="M78.66,95.309c-2.383,2.382-4.765,4.765-7.146,7.147c1.869,0.413,2.307,0.258,1.312-0.468
		c-0.89-0.841-1.778-1.683-2.668-2.523c-1.465-1.386-2.931-2.771-4.396-4.156c-1.428-1.35-3.554,0.764-2.158,2.158
		c2.439,2.439,4.878,4.878,7.316,7.317c0.942,0.941,2.604,0.252,2.604-1.079c0-21.137,0-42.273,0-63.41
		c0-1.968-3.051-1.968-3.051,0c0,21.136,0,42.273,0,63.41c0.868-0.359,1.737-0.72,2.605-1.079
		c-2.439-2.439-4.878-4.878-7.316-7.317c-0.719,0.72-1.439,1.438-2.158,2.158c2.58,2.439,5.159,4.878,7.738,7.317
		c0.604,0.57,1.558,0.601,2.157,0c2.439-2.439,4.878-4.878,7.317-7.317C82.211,96.073,80.054,93.915,78.66,95.309L78.66,95.309z" fill="rgb(155,130,40)"/>
</g>
</svg>
